<?xml version="1.0" standalone="no"?>
<!DOCTYPE svg PUBLIC "-//W3C//DTD SVG 20010904//EN"
 "http://www.w3.org/TR/2001/REC-SVG-20010904/DTD/svg10.dtd">
<svg version="1.0" xmlns="http://www.w3.org/2000/svg"
 width="300.000000pt" height="300.000000pt" viewBox="0 0 300.000000 300.000000"
 preserveAspectRatio="xMidYMid meet">
<metadata>
Created by potrace 1.10, written by Peter Selinger 2001-2011
</metadata>
<g transform="translate(0.000000,300.000000) scale(0.100000,-0.100000)"
fill="#000000" stroke="none">
<path d="M466 1910 c6 -6 59 -35 118 -65 l108 -53 89 43 c61 29 83 45 72 49
-15 6 -79 -14 -133 -41 -15 -8 -26 -9 -28 -3 -2 6 -10 6 -22 0 -13 -7 -21 -7
-26 2 -4 7 -3 8 4 4 7 -4 12 -3 12 2 0 5 -19 12 -42 15 -23 3 -48 14 -55 23
-7 10 -16 15 -19 11 -4 -3 -19 0 -35 8 -33 18 -58 20 -43 5z"/>
<path d="M440 1894 c0 -9 39 -44 83 -74 41 -28 47 -52 17 -77 -50 -43 -92 -91
-115 -129 -28 -48 -44 -124 -26 -124 7 0 11 8 9 18 -11 46 74 144 201 232 34
24 58 46 52 48 -7 2 -18 -2 -27 -9 -12 -10 -20 -8 -42 13 -24 22 -104 80 -139
102 -7 4 -13 4 -13 0z"/>
<path d="M880 1845 c-7 -8 -16 -15 -21 -15 -20 0 -211 -180 -240 -226 -24 -40
-37 -124 -19 -124 7 0 11 3 8 6 -13 13 17 81 49 112 l35 33 16 -23 c20 -27 22
-36 29 -111 4 -40 1 -62 -8 -73 -7 -9 -14 -23 -15 -32 -6 -35 -54 -36 -54 0 0
10 -4 16 -10 13 -5 -3 -19 9 -30 27 -11 18 -20 29 -20 25 0 -17 32 -83 56
-114 30 -40 38 -36 81 35 23 40 27 58 28 122 0 67 -4 81 -33 128 -34 55 -38
67 -22 57 10 -6 44 24 52 46 13 36 167 -91 202 -166 27 -56 17 -114 -28 -170
-37 -45 -136 -126 -168 -138 -26 -9 -22 -19 23 -51 35 -25 40 -26 30 -8 -18
34 -13 57 17 74 39 23 173 158 158 158 -3 0 0 14 6 31 10 30 10 30 22 8 6 -13
22 -26 36 -30 21 -5 22 -7 8 -14 -10 -4 -15 -11 -12 -16 3 -5 1 -9 -4 -9 -12
0 -45 -117 -38 -135 8 -23 34 -29 61 -15 20 11 30 10 59 -4 26 -12 50 -15 88
-11 62 7 58 7 126 -1 36 -5 52 -3 52 5 0 14 47 15 55 1 8 -13 72 -13 80 0 4 6
15 8 25 5 11 -3 29 -1 41 6 19 9 29 8 56 -7 33 -17 35 -17 69 1 29 15 39 17
55 7 24 -15 72 -15 87 0 10 10 19 8 43 -6 21 -13 34 -15 43 -7 8 7 23 7 50 -1
28 -9 45 -9 68 0 19 7 37 8 47 3 23 -13 203 -6 229 8 25 13 38 52 27 78 -5 10
-7 28 -6 41 2 13 -3 29 -9 37 -14 17 -5 35 16 35 18 0 46 -25 37 -34 -7 -7 36
-11 91 -7 27 2 36 -1 31 -9 -5 -8 0 -8 16 1 13 7 30 15 38 19 26 11 24 57 -3
75 -13 9 -28 15 -32 13 -5 -2 -24 4 -43 11 -26 11 -38 12 -52 3 -12 -8 -20 -8
-24 -2 -4 6 -12 10 -18 9 -25 -3 -38 1 -32 11 3 6 1 10 -4 10 -11 0 -43 64
-45 90 -1 8 -7 14 -14 12 -8 -1 -11 2 -7 7 7 13 -50 92 -78 108 -31 18 -79 15
-103 -5 -12 -9 -32 -37 -44 -62 -13 -25 -28 -48 -34 -52 -6 -4 -8 -8 -3 -8 4
0 -5 -22 -20 -50 -34 -64 -43 -51 -43 66 0 106 -6 116 -75 118 -35 1 -47 -3
-51 -16 -3 -10 -12 -18 -20 -18 -8 0 -27 8 -41 18 -23 14 -47 17 -143 14 -124
-2 -170 -8 -170 -22 0 -5 -10 -14 -21 -21 -15 -8 -19 -8 -15 0 20 31 -95 64
-124 35 -5 -5 -11 -34 -11 -62 -1 -29 -5 -55 -10 -57 -8 -6 -49 33 -49 47 0 4
-6 8 -14 8 -7 0 -23 14 -36 30 -13 17 -30 30 -39 30 -10 0 -22 5 -27 10 -6 6
-30 7 -59 3 -59 -8 -37 -21 37 -22 26 -1 53 -7 60 -15 21 -21 132 -147 145
-165 10 -13 12 3 13 85 l0 100 43 -2 42 -2 3 -145 3 -146 -28 4 c-16 2 -43 4
-61 4 -37 1 -49 12 -154 131 l-58 65 0 -100 0 -100 -45 0 -45 0 0 144 c0 155
-10 184 -18 49 -4 -81 -10 -106 -19 -80 -3 7 -11 19 -20 27 -8 8 -11 15 -6 15
4 0 0 5 -9 11 -10 5 -18 17 -18 24 0 8 -7 15 -16 15 -9 0 -12 5 -8 12 4 6 3 8
-4 4 -6 -3 -25 7 -43 24 -19 16 -37 30 -41 30 -21 0 -4 45 27 76 19 18 35 38
35 44 0 14 -5 13 -20 -5z m1088 -243 l-3 -145 -45 -1 -45 -1 -3 145 -2 145 50
1 51 0 -3 -144z m-158 118 c11 -11 20 -27 20 -35 0 -13 -21 -15 -130 -15 -104
0 -130 -3 -130 -14 0 -10 25 -15 97 -21 119 -9 136 -15 153 -54 14 -34 7 -93
-13 -110 -20 -16 -284 -16 -303 0 -39 32 -64 132 -40 156 4 4 5 -9 3 -28 -3
-25 0 -36 9 -36 7 0 11 4 8 9 -9 13 6 9 22 -7 9 -9 11 -16 5 -16 -26 -3 -30
-4 -35 -10 -10 -10 217 -17 242 -8 41 16 15 26 -85 32 -123 8 -147 23 -151 92
-5 80 6 85 170 85 125 0 140 -2 158 -20z m505 -116 c39 -75 71 -139 73 -143 1
-4 -19 -6 -45 -5 -37 2 -49 6 -57 23 -8 19 -17 21 -96 21 -83 0 -88 -1 -93
-22 -5 -20 -12 -23 -52 -22 -25 1 -45 4 -45 8 0 3 11 27 24 54 27 54 106 203
113 215 2 4 28 7 56 7 l52 0 70 -136z m-462 34 c-5 -52 -6 -53 -27 -30 -15 18
-15 21 5 45 11 15 22 27 23 27 2 0 1 -19 -1 -42z m-578 -170 c16 -16 36 -28
45 -28 9 -1 5 -6 -10 -15 -15 -8 -29 -10 -35 -4 -15 15 -87 10 -107 -8 -17
-15 -20 -15 -37 4 -18 19 -18 20 0 31 13 8 19 24 19 49 0 20 7 45 17 55 16 18
18 17 47 -19 17 -21 44 -50 61 -65z m1159 7 c7 -29 26 -24 26 6 0 14 7 19 28
19 25 0 27 -3 27 -45 0 -31 -4 -45 -14 -45 -9 0 -12 11 -9 40 2 22 1 40 -3 40
-3 0 -11 -18 -18 -40 -6 -22 -17 -40 -24 -40 -7 0 -20 20 -29 45 -14 36 -14
45 -4 45 8 0 17 -11 20 -25z m-589 6 c-5 -10 3 -20 40 -46 19 -13 18 -13 -10
-10 -37 5 -67 -3 -60 -16 4 -5 -5 -4 -18 2 l-24 11 36 34 c37 35 46 41 36 25z
m-352 -22 c11 -12 15 -28 12 -40 -7 -22 -30 -25 -38 -5 -4 10 -16 13 -36 11
-17 -2 -33 1 -37 6 -3 6 0 9 7 8 22 -3 49 12 49 27 0 21 23 17 43 -7z m647 11
c0 -5 5 -10 11 -10 5 0 7 5 4 10 -4 6 15 10 49 10 42 0 56 -4 56 -14 0 -8 10
-18 23 -22 20 -7 19 -8 -12 -15 -19 -4 -44 -3 -56 1 -20 8 -82 5 -112 -5 -7
-2 -15 1 -19 7 -4 7 -3 8 4 4 7 -4 12 -2 12 4 0 6 5 8 12 4 7 -4 8 -3 4 4 -8
14 0 32 15 32 5 0 9 -4 9 -10z m449 -9 c13 -24 -8 -55 -35 -49 -20 3 -30 29
-20 54 8 20 43 17 55 -5z m-585 -32 c-7 -12 -36 -11 -54 2 -12 9 -11 10 8 6
12 -3 22 -1 22 4 0 4 7 6 15 3 8 -4 12 -10 9 -15z m-275 -10 c-16 -16 -24 -18
-32 -10 -14 14 6 31 36 31 15 0 15 -2 -4 -21z m-599 -75 c17 -36 30 -70 30
-75 0 -18 -22 -9 -27 11 -4 14 -14 20 -35 20 -21 0 -31 -6 -35 -20 -3 -11 -12
-20 -19 -20 -17 0 -17 0 1 44 8 20 22 52 29 71 8 19 18 35 21 35 3 0 19 -30
35 -66z m131 47 c31 -25 19 -38 -15 -16 -14 9 -30 14 -36 10 -21 -13 -9 -32
30 -44 32 -9 40 -17 40 -35 0 -13 -6 -29 -14 -35 -20 -17 -77 -10 -90 11 -15
25 1 34 23 14 22 -20 56 -18 56 3 0 8 -15 19 -34 26 -48 16 -60 38 -37 64 24
26 47 27 77 2z m133 -3 c14 -24 1 -34 -19 -14 -20 20 -29 20 -45 1 -10 -12 -7
-16 16 -25 46 -16 59 -26 62 -47 2 -11 -4 -25 -12 -32 -20 -17 -77 -10 -90 11
-15 24 0 34 20 14 19 -20 59 -17 59 3 0 8 -14 18 -31 23 -39 10 -58 31 -49 57
10 33 70 39 89 9z m61 -38 c0 -56 17 -79 49 -67 12 5 16 20 16 68 0 42 4 59
12 57 15 -5 11 -117 -4 -135 -6 -7 -26 -13 -44 -13 -28 0 -36 5 -44 26 -15 38
-13 127 3 121 7 -2 12 -23 12 -57z m213 46 c17 -10 15 -53 -2 -63 -12 -7 -10
-13 8 -36 l23 -29 23 66 c13 36 29 67 36 70 7 3 19 -11 27 -32 9 -20 23 -54
31 -74 14 -33 14 -38 2 -38 -8 0 -18 9 -21 20 -4 14 -15 20 -35 20 -19 0 -29
-6 -33 -20 -8 -32 -58 -27 -78 9 -9 15 -26 30 -38 34 -18 4 -21 1 -21 -29 0
-19 -4 -34 -10 -34 -6 0 -10 30 -10 69 0 58 3 70 18 73 25 6 67 2 80 -6z m226
-43 l36 -57 0 57 c0 31 4 57 10 57 6 0 10 -32 10 -75 0 -91 -12 -96 -57 -22
l-32 52 -1 -52 c0 -79 -18 -64 -22 18 -4 101 4 105 56 22z m188 35 c27 -27 7
-39 -22 -13 -30 27 -60 5 -60 -45 0 -34 3 -40 26 -46 21 -5 31 -2 44 16 12 16
19 19 25 11 12 -20 -25 -51 -61 -51 -27 0 -36 6 -49 31 -20 38 -12 83 18 104
30 21 53 19 79 -7z m138 7 c0 -11 -11 -15 -40 -15 -34 0 -40 -3 -40 -20 0 -18
5 -20 36 -18 24 2 39 -2 42 -11 3 -10 -5 -12 -37 -9 -37 3 -41 1 -41 -19 0
-20 5 -23 40 -23 22 0 40 -4 40 -10 0 -5 -24 -10 -52 -10 l-53 0 0 70 0 69 40
4 c22 2 46 4 53 5 6 1 12 -5 12 -13z m118 -8 c6 -5 12 -13 12 -18 0 -15 -22
-10 -35 8 -7 9 -19 14 -29 10 -28 -11 -17 -33 22 -43 29 -7 38 -14 40 -35 2
-14 -4 -31 -12 -38 -20 -17 -77 -10 -90 11 -15 25 1 34 23 14 22 -20 56 -18
56 3 0 8 -15 19 -33 25 -44 15 -56 36 -36 64 12 17 21 21 42 16 15 -4 33 -11
40 -17z"/>
<path d="M2172 1616 c-12 -21 -22 -38 -22 -40 0 -1 18 -2 40 -1 22 0 40 2 40
5 -1 3 -9 20 -19 39 l-18 33 -21 -36z"/>
<path d="M1085 1351 c-8 -26 -3 -34 19 -29 12 2 13 7 2 27 l-14 24 -7 -22z"/>
<path d="M1590 1366 c0 -22 4 -26 30 -26 18 0 33 6 37 15 7 20 3 23 -35 31
-29 6 -32 4 -32 -20z"/>
<path d="M1750 1363 c0 -6 -3 -18 -6 -27 -4 -12 0 -16 15 -16 12 0 21 4 21 8
0 13 -29 48 -30 35z"/>
<path d="M417 1425 c10 -30 33 -66 67 -104 17 -19 24 -31 16 -27 -8 4 -6 0 4
-8 11 -9 25 -16 32 -16 35 0 15 -73 -24 -87 -20 -8 -83 -65 -78 -71 6 -5 135
82 189 128 4 4 -16 23 -45 42 -57 38 -122 98 -150 139 -14 19 -16 20 -11 4z"/>
<path d="M657 1272 c-26 -28 -20 -35 12 -16 17 10 28 21 25 26 -8 13 -20 10
-37 -10z"/>
<path d="M635 1187 c-22 -12 -73 -37 -113 -55 -39 -19 -72 -35 -72 -37 0 -1 9
-5 20 -8 11 -3 18 -1 14 4 -4 8 30 14 39 7 2 -2 11 5 21 15 16 15 36 22 59 18
4 0 7 3 7 8 0 16 71 44 82 33 6 -6 17 -8 24 -5 8 3 20 1 27 -4 16 -14 57 -23
57 -14 0 9 -100 61 -115 61 -6 -1 -28 -11 -50 -23z"/>
<path d="M194 571 c3 -5 -1 -11 -9 -15 -23 -8 -19 -63 5 -76 15 -8 26 -7 45 6
14 9 25 20 25 25 0 5 5 8 11 7 6 -2 14 3 17 11 3 10 0 12 -11 8 -10 -4 -23 3
-36 18 -17 23 -60 37 -47 16z m46 -46 c0 -16 -1 -16 -37 -20 -17 -2 -23 3 -23
16 0 14 7 19 30 19 20 0 30 -5 30 -15z"/>
<path d="M1213 551 c-26 -22 -31 -46 -7 -37 9 3 18 6 20 6 3 0 2 5 -1 10 -3 6
3 10 14 10 14 0 21 -6 21 -20 0 -17 -5 -19 -25 -14 -25 6 -35 -9 -14 -21 16
-11 59 4 59 20 0 8 6 15 13 15 6 0 -1 12 -16 25 -33 30 -35 30 -64 6z"/>
<path d="M310 550 c0 -5 12 -10 26 -10 19 0 25 -4 22 -17 -3 -12 -12 -17 -26
-16 -12 2 -22 -2 -22 -7 0 -13 43 -13 57 1 5 5 8 21 5 35 -3 19 -11 24 -33 24
-16 0 -29 -4 -29 -10z"/>
<path d="M403 550 c-27 -11 -21 -42 12 -60 30 -16 65 2 65 34 0 32 -34 43 -77
26z m67 -25 c0 -10 -10 -15 -30 -15 -20 0 -30 5 -30 15 0 10 10 15 30 15 20 0
30 -5 30 -15z"/>
<path d="M525 550 c-4 -6 8 -10 29 -10 30 0 36 -4 37 -22 1 -18 2 -19 6 -5 3
10 -1 24 -7 32 -14 17 -56 20 -65 5z"/>
<path d="M632 552 c-7 -5 -11 -19 -9 -33 3 -17 12 -25 36 -30 22 -5 31 -3 28
5 -2 6 -13 10 -24 8 -14 -2 -22 4 -26 18 -4 17 0 20 24 20 16 0 32 0 37 0 4 0
8 -4 8 -10 3 -22 4 -24 15 -13 27 27 -52 58 -89 35z"/>
<path d="M760 550 c0 -5 14 -10 30 -10 28 0 30 -2 19 -21 -8 -15 -18 -20 -35
-16 -13 2 -24 1 -24 -4 0 -14 14 -16 48 -7 24 7 32 14 32 32 0 16 -7 26 -22
30 -33 8 -48 7 -48 -4z"/>
<path d="M990 550 c0 -5 14 -10 31 -10 34 0 36 -22 3 -28 -34 -7 -40 -22 -8
-22 23 0 34 6 42 25 10 21 9 26 -8 35 -24 13 -60 13 -60 0z"/>
<path d="M1345 550 c-4 -6 5 -10 19 -10 20 0 26 -5 26 -21 0 -16 -4 -19 -22
-14 -21 5 -21 5 2 -9 24 -14 25 -13 33 10 5 14 6 31 3 39 -6 17 -52 20 -61 5z"/>
<path d="M1444 549 c-3 -5 11 -9 30 -9 27 0 36 -5 39 -20 4 -17 4 -17 3 2 -1
17 -9 24 -34 29 -18 4 -35 3 -38 -2z"/>
<path d="M860 535 c-29 -35 30 -58 84 -33 l26 11 -22 19 c-25 22 -71 24 -88 3z
m70 -10 c0 -10 -10 -15 -30 -15 -20 0 -30 5 -30 15 0 10 10 15 30 15 20 0 30
-5 30 -15z"/>
<path d="M1090 520 c0 -19 28 -40 44 -34 9 3 16 10 16 15 0 4 -6 6 -14 3 -7
-3 -21 2 -30 11 -9 10 -16 12 -16 5z"/>
<path d="M1441 518 c-1 -25 34 -42 49 -23 10 13 8 15 -13 15 -14 0 -28 6 -30
13 -3 7 -6 5 -6 -5z"/>
<path d="M2360 350 c-7 -4 -22 -5 -34 -3 -20 5 -20 4 3 -15 21 -17 26 -18 52
-5 16 8 29 16 29 18 0 7 -39 12 -50 5z"/>
<path d="M370 318 c-28 -15 -47 -18 -95 -13 -62 5 -100 -5 -74 -21 19 -12 59
-14 59 -3 0 10 53 12 88 3 18 -5 20 -9 11 -20 -14 -17 -61 -18 -77 -2 -9 9
-12 9 -12 0 0 -7 -15 -12 -37 -12 -44 0 -38 -11 6 -12 19 -1 31 -6 31 -15 0
-7 4 -13 10 -13 5 0 7 7 3 16 -5 13 1 15 32 12 21 -2 40 -9 43 -16 2 -7 -2
-13 -9 -11 -26 3 -49 -1 -49 -9 0 -5 14 -7 30 -4 17 2 30 0 30 -6 0 -7 -33
-11 -90 -10 l-90 1 0 54 c0 34 -4 52 -10 48 -15 -9 -12 -101 4 -114 8 -7 54
-13 105 -14 51 -1 95 -7 99 -12 12 -18 70 -17 112 1 40 18 52 34 25 34 -11 0
-12 5 -5 25 6 15 6 34 0 49 -5 13 -6 27 -3 30 16 16 23 2 23 -46 0 -56 11 -60
15 -4 2 42 -2 49 -45 81 -40 30 -80 31 -130 3z m96 -16 c34 -22 41 -94 13
-129 -19 -22 -76 -16 -93 9 -22 31 -20 84 4 108 20 20 56 26 76 12z"/>
<path d="M447 260 c-3 -11 -1 -20 4 -20 5 0 9 -10 8 -22 0 -22 -1 -22 -9 -3
-8 18 -9 18 -10 -5 -1 -14 -4 -19 -7 -12 -2 6 -11 12 -20 12 -23 0 -9 -25 17
-28 28 -4 40 12 40 55 0 37 -15 52 -23 23z"/>
<path d="M2283 324 c3 -4 0 -19 -8 -34 -12 -23 -13 -38 -4 -77 6 -26 11 -56
12 -65 2 -22 7 -22 33 -4 18 14 18 15 -9 36 -38 30 -37 71 5 104 l32 25 -28
10 c-31 12 -42 14 -33 5z"/>
<path d="M2398 316 c-16 -12 -15 -15 12 -40 38 -33 38 -55 0 -91 -34 -33 -30
-49 11 -41 26 5 51 -8 29 -16 -5 -1 73 -3 175 -3 157 1 188 3 204 17 11 9 23
13 27 10 5 -4 2 2 -6 12 -8 11 -14 27 -12 38 2 10 -6 31 -17 47 -12 16 -21 34
-21 39 0 11 -116 16 -279 11 -59 -1 -77 2 -86 15 -14 19 -15 19 -37 2z m162
-77 c0 -32 -4 -39 -19 -39 -11 0 -29 12 -40 26 l-21 27 0 -27 c0 -16 -5 -26
-15 -26 -11 0 -15 11 -15 40 0 33 3 40 19 40 11 0 29 -12 40 -26 19 -24 26
-24 22 0 -1 5 0 15 3 23 10 26 26 3 26 -38z m110 30 c0 -5 -17 -10 -37 -10
l-38 -2 35 -6 c26 -4 35 -11 35 -26 0 -16 -8 -21 -39 -23 -21 -2 -43 1 -49 7
-8 8 0 11 29 12 40 1 39 3 -8 13 -30 7 -37 30 -13 43 19 11 85 4 85 -8z m138
-29 l21 -36 -55 0 c-29 0 -54 2 -54 4 0 10 34 68 44 74 13 8 15 6 44 -42z
m-98 0 c0 -29 -4 -40 -15 -40 -11 0 -15 11 -15 40 0 29 4 40 15 40 11 0 15
-11 15 -40z m-60 -75 c0 -5 5 -3 10 5 9 13 11 13 20 0 7 -10 10 -11 10 -2 0
17 132 12 138 -6 2 -7 -6 -12 -22 -12 -14 0 -26 -4 -26 -10 0 -5 -4 -10 -10
-10 -5 0 -9 5 -7 11 1 7 -50 10 -155 10 -119 0 -158 3 -158 13 0 9 27 12 100
12 62 0 100 -4 100 -11z"/>
<path d="M2332 256 c-12 -15 -26 -26 -32 -26 -5 0 -10 -4 -10 -10 0 -5 8 -10
17 -10 9 0 25 -7 35 -17 21 -19 26 -16 34 23 3 17 0 36 -8 47 -13 17 -15 17
-36 -7z"/>
<path d="M2330 129 c-23 -17 -23 -18 -5 -18 11 1 31 4 45 8 24 7 24 8 5 18
-17 9 -26 8 -45 -8z"/>
</g>
</svg>
